<svg width="14" height="10" viewBox="0 0 14 10" fill="none" xmlns="http://www.w3.org/2000/svg">
<path fill-rule="evenodd" clip-rule="evenodd" d="M8.1988 5.3736L8.1967 5.37164C8.14014 5.31887 8.09773 5.25844 8.06967 5.19508C8.04166 5.13184 8.02791 5.06568 8.02791 5.00001C8.02791 4.93435 8.04166 4.86819 8.06967 4.80494C8.09772 4.74162 8.14009 4.68123 8.19661 4.62847L12.1665 0.894065L12.174 0.886828C12.2905 0.774218 12.4584 0.702492 12.6434 0.700075C12.8284 0.697659 12.9991 0.765004 13.1196 0.875239C13.2388 0.984278 13.2979 1.12382 13.2999 1.25986C13.3019 1.39319 13.2491 1.53075 13.1384 1.64106L13.1356 1.64385L9.48984 5.00001L13.1384 8.35891C13.1924 8.41274 13.2329 8.47358 13.2598 8.53708C13.2877 8.60299 13.3009 8.67185 13.2999 8.74017C13.2989 8.80849 13.2836 8.87718 13.2536 8.94268C13.2236 9.00829 13.1788 9.0706 13.1196 9.12479C13.0603 9.17904 12.9879 9.22382 12.9056 9.25463C12.8233 9.28545 12.7341 9.30114 12.6434 9.29995C12.5527 9.29877 12.4641 9.28076 12.3831 9.24791C12.3022 9.21516 12.2318 9.16881 12.1746 9.11362L8.1988 5.3736ZM4.47195 7.14945H4.51924L2.22433 5.00001L5.80634 1.64506L5.80819 1.64328C5.92044 1.5326 5.97393 1.3941 5.97195 1.25986C5.96994 1.12382 5.91082 0.984279 5.79164 0.875239C5.67115 0.765004 5.50044 0.697658 5.31546 0.700075C5.1305 0.702492 4.9625 0.774217 4.84608 0.886827L4.8391 0.893586L4.8381 0.894545L0.868764 4.62838C0.812224 4.68114 0.769769 4.74161 0.74172 4.80494C0.71371 4.86819 0.699951 4.93435 0.699951 5.00001C0.699951 5.06567 0.71371 5.13183 0.74172 5.19508C0.76978 5.25844 0.812187 5.31887 0.868752 5.37164L0.870847 5.3736L4.83905 9.10649C4.95398 9.21461 5.11856 9.28229 5.29856 9.28229C5.47856 9.28229 5.64315 9.21461 5.75808 9.10649C5.8717 8.99961 5.92671 8.8642 5.92671 8.7329C5.92671 8.60161 5.8717 8.4662 5.75808 8.35931L4.47195 7.14945Z" fill="#ECE2FD"/>
</svg>
