<svg width="14" height="16" viewBox="0 0 14 16" fill="none" xmlns="http://www.w3.org/2000/svg">
<path fill-rule="evenodd" clip-rule="evenodd" d="M4.71077 0.79836C5.11023 0.416145 5.65384 0.199951 6.22242 0.199951H7.77797C8.34655 0.199951 8.89016 0.416145 9.28962 0.79836C9.68879 1.18029 9.91131 1.69636 9.91131 2.23251V3.1767H13.2224C13.3784 3.1767 13.5264 3.23608 13.6341 3.33917C13.7416 3.44198 13.8002 3.57948 13.8002 3.72088C13.8002 3.86228 13.7416 3.99978 13.6341 4.10259C13.5264 4.20568 13.3784 4.26507 13.2224 4.26507H12.2446V13.7674C12.2446 14.3035 12.0221 14.8196 11.623 15.2015C11.2235 15.5838 10.6799 15.8 10.1113 15.8H3.88908C3.32051 15.8 2.7769 15.5838 2.37743 15.2015C1.97826 14.8196 1.75575 14.3035 1.75575 13.7674V4.26507H0.777973C0.62195 4.26507 0.474007 4.20568 0.366267 4.10259C0.258815 3.99978 0.200195 3.86228 0.200195 3.72088C0.200195 3.57948 0.258815 3.44198 0.366267 3.33917C0.474007 3.23608 0.62195 3.1767 0.777973 3.1767H4.08908V2.23251C4.08908 1.69636 4.3116 1.18029 4.71077 0.79836ZM6.22242 1.28832C5.96587 1.28832 5.71815 1.38575 5.53418 1.56178C5.3499 1.73811 5.24464 1.97918 5.24464 2.23251V3.1767H8.75575V2.23251C8.75575 1.97918 8.65049 1.73811 8.46621 1.56178C8.28224 1.38575 8.03452 1.28832 7.77797 1.28832H6.22242ZM11.0891 4.26507H2.91131V13.7674C2.91131 14.0207 3.01656 14.2618 3.20085 14.4381C3.38482 14.6142 3.63254 14.7116 3.88908 14.7116H10.1113C10.3679 14.7116 10.6156 14.6142 10.7995 14.4381C10.9838 14.2618 11.0891 14.0207 11.0891 13.7674V4.26507Z" fill="#333333"/>
<path d="M5.2168 7.3333C5.2168 7.08477 5.41827 6.8833 5.6668 6.8833C5.91532 6.8833 6.1168 7.08477 6.1168 7.3333V11.3333C6.1168 11.5818 5.91532 11.7833 5.6668 11.7833C5.41827 11.7833 5.2168 11.5818 5.2168 11.3333V7.3333Z" fill="#333333"/>
<path d="M7.88347 7.3333C7.88347 7.08477 8.08494 6.8833 8.33347 6.8833C8.582 6.8833 8.78347 7.08477 8.78347 7.3333V11.3333C8.78347 11.5818 8.582 11.7833 8.33347 11.7833C8.08494 11.7833 7.88347 11.5818 7.88347 11.3333V7.3333Z" fill="#333333"/>
</svg>
