<svg width="10" height="14" viewBox="0 0 10 14" fill="none" xmlns="http://www.w3.org/2000/svg">
<path fill-rule="evenodd" clip-rule="evenodd" d="M0.912636 12.1918L9.14168 12.1918C9.48912 12.1918 9.77078 12.4735 9.77078 12.8209C9.77078 13.1684 9.48912 13.45 9.14168 13.45H0.912636C0.565195 13.45 0.283539 13.1684 0.283539 12.8209C0.283539 12.4735 0.565195 12.1918 0.912636 12.1918Z" fill="#6E27D5"/>
<path d="M4.6306 1.00362C4.73659 0.900046 4.87892 0.842041 5.02714 0.842041C5.17552 0.842041 5.31831 0.900658 5.42419 1.00412L9.74855 5.32823C9.80827 5.37868 9.85693 5.44093 9.89146 5.51108C9.92599 5.58122 9.94565 5.65774 9.94921 5.73584C9.95276 5.81393 9.94014 5.89192 9.91214 5.96492C9.88413 6.0379 9.84134 6.10432 9.78645 6.15999C9.73157 6.21566 9.66577 6.25939 9.59318 6.28843C9.52059 6.31747 9.44279 6.33119 9.36465 6.32874C9.28651 6.32629 9.20972 6.30772 9.13909 6.27419C9.06923 6.24102 9.0075 6.19386 8.95689 6.13637L5.5945 2.76764V10.7762C5.5945 10.9267 5.53473 11.071 5.42833 11.1774C5.32193 11.2838 5.17762 11.3436 5.02714 11.3436C4.87667 11.3436 4.73236 11.2838 4.62596 11.1774C4.51956 11.071 4.45978 10.9267 4.45978 10.7762V2.77395L1.10004 6.13389C1.04875 6.19289 0.985815 6.24066 0.915192 6.27419C0.844569 6.30772 0.767778 6.32629 0.689637 6.32874C0.611496 6.33119 0.533692 6.31747 0.461107 6.28843C0.388522 6.25939 0.322721 6.21566 0.267833 6.15999C0.212946 6.10432 0.170156 6.0379 0.142149 5.96491C0.114142 5.89192 0.101522 5.81393 0.10508 5.73583C0.108639 5.65773 0.1283 5.58122 0.162829 5.51108C0.196943 5.44178 0.244928 5.38106 0.30273 5.33149L4.6306 1.00362Z" fill="#6E27D5"/>
</svg>
